Coordinates
version=1
nRows=17
nColumns=40
inDegrees=yes

Units are S.I. units (second, meters, Newtons, ...)
If the header above contains a line with 'inDegrees', this indicates whether rotational values are in degrees (yes) or radians (no).

endheader
time	pelvis_tilt	pelvis_list	pelvis_rotation	pelvis_tx	pelvis_ty	pelvis_tz	hip_flexion_r	hip_adduction_r	hip_rotation_r	knee_angle_r	knee_angle_r_beta	ankle_angle_r	subtalar_angle_r	mtp_angle_r	hip_flexion_l	hip_adduction_l	hip_rotation_l	knee_angle_l	knee_angle_l_beta	ankle_angle_l	subtalar_angle_l	mtp_angle_l	lumbar_extension	lumbar_bending	lumbar_rotation	arm_flex_r	arm_add_r	arm_rot_r	elbow_flex_r	pro_sup_r	wrist_flex_r	wrist_dev_r	arm_flex_l	arm_add_l	arm_rot_l	elbow_flex_l	pro_sup_l	wrist_flex_l	wrist_dev_l
      3.34000000	    -31.98893649	     -1.90979454	     -3.07948105	     -0.41860345	      0.68486388	     -0.88784481	     87.68607948	     -9.15689782	      1.81737768	     92.26147687	      1.61026654	     35.36260527	      0.00000000	      0.00000000	     89.89723377	    -20.25450534	      7.89498674	     92.00913567	      1.60586236	     34.07911027	      0.00000000	      0.00000000	    -18.84861484	      1.39147698	      4.94099243	      5.81451488	    -53.26962013	     72.59404422	     89.08207897	     86.16429640	      0.00000000	      0.00000000	    -15.85549320	    -48.49232223	     39.68384955	     97.83504506	     87.77188219	      0.00000000	      0.00000000
      3.34500000	    -32.00175640	     -1.97747565	     -3.04864852	     -0.41867805	      0.68500965	     -0.88783849	     87.65888913	     -9.16752856	      1.73519831	     92.23367506	      1.60978131	     35.38242258	      0.00000000	      0.00000000	     89.94329590	    -20.23223378	      7.96348428	     91.98841648	      1.60550074	     34.04320298	      0.00000000	      0.00000000	    -18.85033524	      1.47995861	      4.93517323	      6.12904559	    -53.28632349	     72.98320667	     89.10593339	     86.76424475	      0.00000000	      0.00000000	    -15.65026527	    -48.53980640	     40.00887932	     97.81199729	     87.54776215	      0.00000000	      0.00000000
      3.35000000	    -32.00804879	     -1.99831124	     -3.03400624	     -0.41873353	      0.68512192	     -0.88785555	     87.64842651	     -9.16975210	      1.72204888	     92.20654118	      1.60930774	     35.30925464	      0.00000000	      0.00000000	     89.94998125	    -20.20757420	      7.99503973	     91.96781469	      1.60514117	     33.97974716	      0.00000000	      0.00000000	    -18.87588206	      1.50349496	      5.06908297	      5.82295497	    -53.33072179	     72.67131688	     89.12799848	     86.51703337	      0.00000000	      0.00000000	    -15.34076865	    -48.59652657	     40.33516022	     97.76283302	     87.66483788	      0.00000000	      0.00000000
      3.35500000	    -31.92544904	     -2.03041715	     -3.01304399	     -0.41862957	      0.68534069	     -0.88784086	     87.52249588	     -9.17501969	      1.69025825	     92.20019110	      1.60919691	     35.47131053	      0.00000000	      0.00000000	     89.82877772	    -20.19109488	      8.01888407	     91.94017476	      1.60465876	     34.19247416	      0.00000000	      0.00000000	    -18.99510608	      1.53251045	      5.19447065	      5.62911487	    -53.34298596	     72.51095485	     89.14892024	     85.88858521	      0.00000000	      0.00000000	    -14.94146984	    -48.68085285	     40.80786257	     97.71037129	     87.72433121	      0.00000000	      0.00000000
      3.36000000	    -32.01277749	     -2.06739132	     -2.97510426	     -0.41876849	      0.68534197	     -0.88785768	     87.60411657	     -9.19372840	      1.65984224	     92.16991787	      1.60866854	     35.38650110	      0.00000000	      0.00000000	     89.96531391	    -20.15342589	      8.06582130	     91.92348205	      1.60436742	     33.99049091	      0.00000000	      0.00000000	    -18.93257437	      1.58809165	      5.19861082	      5.66725240	    -53.32617882	     72.59535895	     89.12996536	     86.39642230	      0.00000000	      0.00000000	    -14.90303453	    -48.67046747	     40.76220420	     97.70638967	     87.60573729	      0.00000000	      0.00000000
      3.36500000	    -32.00600921	     -2.07416143	     -2.97915482	     -0.41874310	      0.68540064	     -0.88780988	     87.59302287	     -9.15967974	      1.67554289	     92.19236925	      1.60906039	     35.41231450	      0.00000000	      0.00000000	     89.94088631	    -20.16528110	      8.07497273	     91.90360330	      1.60402047	     34.01532662	      0.00000000	      0.00000000	    -18.96447299	      1.57904732	      5.25459432	      5.52227687	    -53.33708419	     72.36485734	     89.15764454	     86.79176207	      0.00000000	      0.00000000	    -14.82714986	    -48.70563057	     40.97834479	     97.70674702	     87.47937253	      0.00000000	      0.00000000
      3.37000000	    -32.04730096	     -2.04864005	     -2.95691827	     -0.41884546	      0.68539525	     -0.88784802	     87.64456587	     -9.19184610	      1.69388295	     92.15878449	      1.60847422	     35.35969678	      0.00000000	      0.00000000	     89.97765394	    -20.13507148	      8.03594781	     91.88467162	      1.60369005	     33.99516890	      0.00000000	      0.00000000	    -18.97500445	      1.57632793	      4.60914250	      7.08000334	    -53.28562436	     74.04733146	     89.12611500	     86.67731182	      0.00000000	      0.00000000	    -16.36448049	    -48.40574088	     39.25787568	     97.88320436	     87.58051250	      0.00000000	      0.00000000
      3.37500000	    -32.02576567	     -2.05304171	     -2.93696729	     -0.41886867	      0.68545770	     -0.88788875	     87.62624672	     -9.19619257	      1.71579627	     92.17335086	      1.60872846	     35.33456944	      0.00000000	      0.00000000	     89.94981519	    -20.11759330	      8.02916534	     91.87781503	      1.60357038	     34.00905162	      0.00000000	      0.00000000	    -19.00829973	      1.57374130	      5.06790834	      5.97664916	    -53.38654159	     72.93193901	     89.28393985	     85.51587239	      0.00000000	      0.00000000	    -15.18804679	    -48.67943238	     40.60721373	     97.81386532	     87.83812049	      0.00000000	      0.00000000
      3.38000000	    -32.01058368	     -2.01926471	     -2.95136845	     -0.41889728	      0.68560405	     -0.88788723	     87.60331105	     -9.18287191	      1.75634289	     92.12674121	      1.60791496	     35.33440271	      0.00000000	      0.00000000	     89.90967136	    -20.15552829	      7.95102006	     91.85237232	      1.60312632	     33.98152462	      0.00000000	      0.00000000	    -19.07799539	      1.54190563	      4.92094131	      6.41082627	    -53.36114795	     73.30395077	     89.23060312	     86.63749667	      0.00000000	      0.00000000	    -15.52971693	    -48.58048166	     40.23468040	     97.79110920	     87.55932162	      0.00000000	      0.00000000
      3.38500000	    -32.05016131	     -1.98405799	     -2.94130562	     -0.41890894	      0.68561345	     -0.88800423	     87.61880662	     -9.19019472	      1.79846278	     92.09522655	      1.60736493	     35.69425233	      0.00000000	      0.00000000	     89.89598093	    -20.10538851	      7.91461407	     91.80971600	      1.60238183	     34.28925659	      0.00000000	      0.00000000	    -19.09651926	      1.50504825	      5.13018356	      5.43506430	    -53.37074692	     72.17695980	     89.18256684	     85.66065957	      0.00000000	      0.00000000	    -15.33828490	    -48.53373022	     40.31268710	     97.70594735	     87.72729703	      0.00000000	      0.00000000
      3.39000000	    -32.10061676	     -1.96007409	     -2.95131277	     -0.41912848	      0.68556607	     -0.88793847	     87.73281648	     -9.19494874	      1.81306873	     92.12326801	      1.60785434	     35.29957433	      0.00000000	      0.00000000	     89.98208761	    -20.12048147	      7.90307499	     91.82100274	      1.60257882	     33.94937908	      0.00000000	      0.00000000	    -19.04324547	      1.48162470	      4.64915283	      7.20239347	    -53.36702171	     74.20582871	     89.24555644	     86.78534252	      0.00000000	      0.00000000	    -16.23217004	    -48.46563988	     39.43810700	     97.91160409	     87.55246022	      0.00000000	      0.00000000
      3.39500000	    -32.14146679	     -1.95580769	     -2.94356717	     -0.41925097	      0.68556819	     -0.88797144	     87.77500953	     -9.19760891	      1.82543613	     92.09988285	      1.60744620	     35.25123753	      0.00000000	      0.00000000	     90.02982037	    -20.09655832	      7.90912703	     91.80902251	      1.60236973	     33.94336235	      0.00000000	      0.00000000	    -19.03519322	      1.47655156	      4.77665446	      6.90110670	    -53.40760984	     73.87611127	     89.29298214	     86.49983397	      0.00000000	      0.00000000	    -15.93053051	    -48.53916732	     39.77548815	     97.90339223	     87.65882224	      0.00000000	      0.00000000
      3.40000000	    -32.11969255	     -1.92736642	     -2.94043157	     -0.41919298	      0.68564284	     -0.88799349	     87.75642663	     -9.21230143	      1.85199017	     92.10374660	      1.60751363	     35.23654760	      0.00000000	      0.00000000	     89.97241517	    -20.09664822	      7.85965005	     91.78950651	      1.60202911	     33.96103408	      0.00000000	      0.00000000	    -19.08051276	      1.44485525	      4.84018415	      6.76527226	    -53.41273605	     73.72094134	     89.30704029	     86.69407798	      0.00000000	      0.00000000	    -15.75139834	    -48.57858355	     39.99458881	     97.86239761	     87.58874836	      0.00000000	      0.00000000
      3.40500000	    -32.21413054	     -1.98455607	     -2.91998095	     -0.41937590	      0.68556403	     -0.88800408	     87.85807159	     -9.22547326	      1.77723239	     92.12090213	      1.60781305	     35.16502330	      0.00000000	      0.00000000	     90.12056824	    -20.07478044	      7.94072004	     91.76923715	      1.60167534	     33.82176885	      0.00000000	      0.00000000	    -19.00021371	      1.50934920	      5.01599935	      6.34875162	    -53.45466753	     73.29695207	     89.35874973	     86.39512948	      0.00000000	      0.00000000	    -15.31661400	    -48.62942516	     40.48517936	     97.84505474	     87.69138174	      0.00000000	      0.00000000
      3.41000000	    -32.16353736	     -1.93723174	     -2.91307807	     -0.41933772	      0.68570516	     -0.88800425	     87.79007274	     -9.23323127	      1.83462862	     92.07522665	      1.60701586	     35.30741644	      0.00000000	      0.00000000	     90.02006885	    -20.07454375	      7.84604832	     91.74295281	      1.60121659	     33.95800230	      0.00000000	      0.00000000	    -19.10319723	      1.44846175	      4.98032928	      6.43007132	    -53.44017546	     73.33410802	     89.31431673	     86.79223705	      0.00000000	      0.00000000	    -15.37647824	    -48.68197163	     40.41969334	     97.84710461	     87.53251513	      0.00000000	      0.00000000
      3.41500000	    -32.18161013	     -1.95970142	     -2.91480283	     -0.41940089	      0.68570991	     -0.88799609	     87.80052340	     -9.19926370	      1.84972476	     92.06655291	      1.60686448	     35.22734097	      0.00000000	      0.00000000	     90.04527564	    -20.04929929	      7.92205152	     91.74774151	      1.60130017	     33.92065704	      0.00000000	      0.00000000	    -19.12101245	      1.47958911	      4.77712075	      7.06225843	    -53.42952430	     74.07148487	     89.31149925	     86.77463369	      0.00000000	      0.00000000	    -15.89227554	    -48.57567598	     39.84664057	     97.92005608	     87.55453916	      0.00000000	      0.00000000
      3.42000000	    -32.18363102	     -2.00250082	     -2.87934349	     -0.41948452	      0.68577205	     -0.88803778	     87.79472909	     -9.25773341	      1.75356966	     92.05997714	      1.60674971	     35.18893929	      0.00000000	      0.00000000	     90.07980987	    -20.05506875	      7.92124717	     91.74142482	      1.60118992	     33.86710963	      0.00000000	      0.00000000	    -19.12702368	      1.53354209	      4.93348919	      6.89155745	    -53.48853892	     74.02817169	     89.37937417	     85.96721718	      0.00000000	      0.00000000	    -15.33290535	    -48.72013878	     40.49923699	     97.87629132	     87.78539948	      0.00000000	      0.00000000
